<svg width="25" height="24" viewBox="0 0 25 24" fill="none" xmlns="http://www.w3.org/2000/svg">
<g clip-path="url(#clip0_3444_40)">
<path d="M1.33334 1H5.33334L8.01334 14.39C8.10479 14.8504 8.35525 15.264 8.72089 15.5583C9.08653 15.8526 9.54404 16.009 10.0133 16H19.7333C20.2026 16.009 20.6602 15.8526 21.0258 15.5583C21.3914 15.264 21.6419 14.8504 21.7333 14.39L23.3333 6H6.33334M10.3333 21C10.3333 21.5523 9.88563 22 9.33334 22C8.78106 22 8.33334 21.5523 8.33334 21C8.33334 20.4477 8.78106 20 9.33334 20C9.88563 20 10.3333 20.4477 10.3333 21ZM21.3333 21C21.3333 21.5523 20.8856 22 20.3333 22C19.7811 22 19.3333 21.5523 19.3333 21C19.3333 20.4477 19.7811 20 20.3333 20C20.8856 20 21.3333 20.4477 21.3333 21Z" stroke="#1A1A1A" stroke-width="1.5" stroke-linecap="round" stroke-linejoin="round"/>
</g>
<defs>
<clipPath id="clip0_3444_40">
<rect width="24" height="24" fill="white" transform="translate(0.333344)"/>
</clipPath>
</defs>
</svg>
