<svg width="25" height="24" viewBox="0 0 25 24" fill="none" xmlns="http://www.w3.org/2000/svg">
<path d="M21.1245 4.59133C20.6358 4.08683 20.0556 3.68663 19.4169 3.41358C18.7783 3.14054 18.0938 3 17.4026 3C16.7113 3 16.0268 3.14054 15.3882 3.41358C14.7495 3.68663 14.1693 4.08683 13.6806 4.59133L12.6664 5.63785L11.6522 4.59133C10.6651 3.57276 9.32628 3.00053 7.93028 3.00053C6.53428 3.00053 5.19547 3.57276 4.20835 4.59133C3.22123 5.6099 2.66667 6.99139 2.66667 8.43187C2.66667 9.87235 3.22123 11.2538 4.20835 12.2724L12.6664 21L21.1245 12.2724C21.6134 11.7681 22.0012 11.1694 22.2659 10.5105C22.5305 9.85148 22.6667 9.14517 22.6667 8.43187C22.6667 7.71857 22.5305 7.01225 22.2659 6.35328C22.0012 5.69431 21.6134 5.09559 21.1245 4.59133Z" stroke="#1A1A1A" stroke-width="1.5" stroke-linecap="round" stroke-linejoin="round"/>
</svg>
